<svg xmlns="http://www.w3.org/2000/svg" viewBox="0 0 800 600" fill="none">
  <defs>
    <linearGradient id="bg" x1="56" y1="44" x2="734" y2="558" gradientUnits="userSpaceOnUse">
      <stop stop-color="#0E2742" />
      <stop offset="1" stop-color="#07101A" />
    </linearGradient>
    <radialGradient id="glow" cx="0" cy="0" r="1" gradientUnits="userSpaceOnUse" gradientTransform="translate(624 118) rotate(90) scale(184 214)">
      <stop stop-color="#74DCFF" stop-opacity=".52" />
      <stop offset="1" stop-color="#74DCFF" stop-opacity="0" />
    </radialGradient>
  </defs>
  <rect width="800" height="600" rx="36" fill="url(#bg)" />
  <rect x="48" y="48" width="704" height="504" rx="28" fill="rgba(255,255,255,.04)" stroke="rgba(255,255,255,.16)" />
  <ellipse cx="624" cy="118" rx="184" ry="214" fill="url(#glow)" />
  <circle cx="134" cy="102" r="3" fill="#F8FBFF" />
  <circle cx="188" cy="148" r="2" fill="#F8FBFF" />
  <circle cx="690" cy="92" r="2" fill="#FFE9B4" />
  <path d="M120 438c54-152 162-228 322-228 56 0 112 12 168 36-54 154-162 230-324 230-56 0-111-12-166-38Z" fill="rgba(255,255,255,.08)" />
  <circle cx="286" cy="266" r="70" fill="#74DCFF" fill-opacity=".18" stroke="#74DCFF" stroke-width="10" />
  <path d="M286 214c34 0 62 28 62 62s-28 62-62 62-62-28-62-62 28-62 62-62Zm0 146c-48 0-144 24-144 72v8h288v-8c0-48-96-72-144-72Z" fill="#F8FBFF" fill-opacity=".9" />
  <text x="96" y="118" fill="rgba(255,255,255,.76)" font-family="Segoe UI, Arial, sans-serif" font-size="24" letter-spacing="6">LOCAL CHARACTER POSTER</text>
  <text x="96" y="202" fill="#F8FBFF" font-family="Segoe UI, Arial, sans-serif" font-size="64" font-weight="700">CHARACTERS</text>
  <text x="96" y="274" fill="rgba(255,255,255,.82)" font-family="Segoe UI, Arial, sans-serif" font-size="28">Reliable offline art for every hero, villain, and wildcard.</text>
  <text x="96" y="318" fill="rgba(255,255,255,.82)" font-family="Segoe UI, Arial, sans-serif" font-size="28">The name and lore stay unique on the card below.</text>
</svg>
