<svg xmlns="http://www.w3.org/2000/svg" viewBox="0 0 800 600" fill="none">
  <defs>
    <linearGradient id="bg" x1="52" y1="44" x2="742" y2="556" gradientUnits="userSpaceOnUse">
      <stop stop-color="#2B170C" />
      <stop offset="1" stop-color="#0B0F17" />
    </linearGradient>
    <radialGradient id="glow" cx="0" cy="0" r="1" gradientUnits="userSpaceOnUse" gradientTransform="translate(630 130) rotate(90) scale(192 216)">
      <stop stop-color="#FFC966" stop-opacity=".55" />
      <stop offset="1" stop-color="#FFC966" stop-opacity="0" />
    </radialGradient>
  </defs>
  <rect width="800" height="600" rx="36" fill="url(#bg)" />
  <rect x="48" y="48" width="704" height="504" rx="28" fill="rgba(255,255,255,.04)" stroke="rgba(255,255,255,.16)" />
  <ellipse cx="630" cy="130" rx="192" ry="216" fill="url(#glow)" />
  <path d="M248 124h152l70 58-70 58H248l-70-58 70-58Z" fill="#1A1E28" stroke="#FFC966" stroke-width="12" />
  <circle cx="296" cy="182" r="24" fill="#07101A" stroke="#74DCFF" stroke-width="10" />
  <circle cx="352" cy="182" r="24" fill="#07101A" stroke="#74DCFF" stroke-width="10" />
  <rect x="234" y="262" width="180" height="190" rx="40" fill="#F0C06B" fill-opacity=".18" stroke="#FFE3A8" stroke-width="12" />
  <rect x="272" y="310" width="104" height="20" rx="10" fill="#F8FBFF" fill-opacity=".86" />
  <rect x="262" y="350" width="124" height="20" rx="10" fill="#19212F" />
  <rect x="274" y="390" width="100" height="20" rx="10" fill="#19212F" />
  <text x="96" y="118" fill="rgba(255,255,255,.76)" font-family="Segoe UI, Arial, sans-serif" font-size="24" letter-spacing="6">LOCAL DROID POSTER</text>
  <text x="96" y="202" fill="#F8FBFF" font-family="Segoe UI, Arial, sans-serif" font-size="64" font-weight="700">DROIDS</text>
  <text x="96" y="274" fill="rgba(255,255,255,.82)" font-family="Segoe UI, Arial, sans-serif" font-size="28">Reliable offline art for every mechanical unit in the deck.</text>
  <text x="96" y="318" fill="rgba(255,255,255,.82)" font-family="Segoe UI, Arial, sans-serif" font-size="28">Hover the first five cards to reveal the custom droid illustrations.</text>
</svg>
