<svg xmlns="http://www.w3.org/2000/svg" viewBox="0 0 480 620" fill="none">
  <defs>
    <linearGradient id="bg" x1="52" y1="34" x2="420" y2="590" gradientUnits="userSpaceOnUse">
      <stop stop-color="#20100A" />
      <stop offset="1" stop-color="#090C12" />
    </linearGradient>
    <linearGradient id="body" x1="126" y1="126" x2="326" y2="458" gradientUnits="userSpaceOnUse">
      <stop stop-color="#FFC76A" />
      <stop offset="1" stop-color="#D36A2E" />
    </linearGradient>
    <radialGradient id="glow" cx="0" cy="0" r="1" gradientUnits="userSpaceOnUse" gradientTransform="translate(240 466) rotate(90) scale(168 148)">
      <stop stop-color="#FF9A5B" stop-opacity=".52" />
      <stop offset="1" stop-color="#FF9A5B" stop-opacity="0" />
    </radialGradient>
  </defs>
  <rect width="480" height="620" rx="34" fill="url(#bg)" />
  <ellipse cx="240" cy="472" rx="166" ry="128" fill="url(#glow)" />
  <g transform="translate(76 72)">
    <rect x="82" y="10" width="170" height="112" rx="34" fill="#1E1A17" stroke="#FFBA62" stroke-width="10" />
    <circle cx="134" cy="68" r="22" fill="#0A1118" stroke="#73E3FF" stroke-width="10" />
    <circle cx="200" cy="68" r="22" fill="#0A1118" stroke="#73E3FF" stroke-width="10" />
    <rect x="126" y="100" width="82" height="16" rx="8" fill="#F7E2BE" />
    <rect x="92" y="146" width="150" height="190" rx="40" fill="url(#body)" stroke="#FFE6B5" stroke-width="12" />
    <rect x="124" y="184" width="86" height="20" rx="10" fill="#311A10" />
    <rect x="116" y="222" width="102" height="20" rx="10" fill="#311A10" />
    <rect x="128" y="260" width="78" height="20" rx="10" fill="#311A10" />
    <path d="M24 190h68l26 32-18 26H54L24 220v-30Z" fill="#C95C25" stroke="#FFCA7A" stroke-width="10" />
    <path d="M302 190h-68l-26 32 18 26h46l30-28v-30Z" fill="#C95C25" stroke="#FFCA7A" stroke-width="10" />
    <rect x="22" y="246" width="40" height="112" rx="18" fill="#7FD6F5" />
    <rect x="266" y="246" width="40" height="112" rx="18" fill="#7FD6F5" />
    <circle cx="42" cy="378" r="28" fill="#1A1C21" stroke="#FFCA7A" stroke-width="10" />
    <circle cx="286" cy="378" r="28" fill="#1A1C21" stroke="#FFCA7A" stroke-width="10" />
    <rect x="126" y="336" width="24" height="112" rx="12" fill="#F6F2E8" />
    <rect x="184" y="336" width="24" height="112" rx="12" fill="#F6F2E8" />
    <rect x="102" y="436" width="64" height="28" rx="14" fill="#FFBA62" />
    <rect x="168" y="436" width="64" height="28" rx="14" fill="#FFBA62" />
  </g>
</svg>
